<svg id="Layer_1" data-name="Layer 1" xmlns="http://www.w3.org/2000/svg" viewBox="0 0 137.91 32.93"><defs><style>.cls-1{fill:#652682;}.cls-2{fill:#010101;}.cls-3{fill:#29265b;}</style></defs><path class="cls-1" d="M83,2.62h5l1.81,4.87,1.41,3.87h0l1.29-3.87,1.67-4.87h5.15V19.81h-4l.13-10.74h0l-3.09,8.16h-2.7L86.63,9.07h0l.13,10.74H83.15V2.62Z" transform="translate(-21.2 -0.76)"/><path class="cls-1" d="M101.43,11.21c0-5,2.19-8.87,7.21-8.87s7.21,3.86,7.21,8.87-2.19,8.88-7.21,8.88S101.43,16.23,101.43,11.21Zm10.43,0c0-3.43-1-5.15-3.22-5.15s-3.22,1.72-3.22,5.15.9,5.16,3.22,5.16S111.86,14.51,111.86,11.21Z" transform="translate(-21.2 -0.76)"/><path class="cls-1" d="M117.91,2.62h3.6l5.93,10h0l-.13-10h3.6V19.81h-3.86l-5.66-9.6h0l.12,9.6h-3.6Z" transform="translate(-21.2 -0.76)"/><path class="cls-1" d="M137.35,6.35V9.21h5.92v3.72h-5.92v3.44h7.08v3.72H133.36V2.91H144.3V6.63h-7Z" transform="translate(-21.2 -0.76)"/><path class="cls-1" d="M153.7,6.2l1.42-3.58h4l-4.77,12.17V20h-4V14.79L145.46,2.62h4.25l1.41,3.58,1.42,4.3h0Z" transform="translate(-21.2 -0.76)"/><path class="cls-2" d="M93.32,32.26V24.82L90,28.54l-3.34-3.72v7.44H86V23.53h.52L90,27.39l3.48-3.86h.64v8.73Z" transform="translate(-21.2 -0.76)"/><path class="cls-2" d="M100.27,32.26l-1-3h-3l-1,3h-.77l3-8.73H98l3,8.73ZM97.7,25l-1.16,3.58H99Z" transform="translate(-21.2 -0.76)"/><path class="cls-2" d="M107.35,32.26V29.54l-5.15-5v7.73h-.64V23.53h.77l5.15,4.87V23.53H108v8.73Z" transform="translate(-21.2 -0.76)"/><path class="cls-2" d="M114.18,32.26l-1-3h-3l-.91,3h-.77l3-8.73H112l3,8.73ZM111.73,25l-1.16,3.58H113Z" transform="translate(-21.2 -0.76)"/><path class="cls-2" d="M115.72,26.11a5.33,5.33,0,0,1,.9-1.44,4.86,4.86,0,0,1,1.29-1,5,5,0,0,1,2.83-.14c.39.14.65.28,1,.43a3.34,3.34,0,0,1,.77.71,6.33,6.33,0,0,1,.65,1v.14l-.65.43-.12-.14a3.09,3.09,0,0,0-1.16-1.44,3.86,3.86,0,0,0-1.8-.43,5.06,5.06,0,0,0-1.42.29,2,2,0,0,0-1,.86,3.07,3.07,0,0,0-.64,1.15,5.53,5.53,0,0,0-.26,1.43,5.53,5.53,0,0,0,.26,1.43,2.11,2.11,0,0,0,.77,1.14,2.7,2.7,0,0,0,1,.72,4.25,4.25,0,0,0,1.41.29,3.47,3.47,0,0,0,1.16-.29,2,2,0,0,0,.9-.57l.78-.86a1.79,1.79,0,0,0,.38-1.15h-3.47V28h4.12v.14a3.14,3.14,0,0,1-.39,1.58,4.46,4.46,0,0,1-.9,1.28,2.61,2.61,0,0,1-1.29.86,2.92,2.92,0,0,1-1.54.29,5.72,5.72,0,0,1-1.68-.29,2.9,2.9,0,0,1-1.28-1,3.05,3.05,0,0,1-.78-1.43,4.12,4.12,0,0,1-.25-1.72C115.46,27.25,115.59,26.68,115.72,26.11Z" transform="translate(-21.2 -0.76)"/><path class="cls-2" d="M124.09,32.26V23.53h5.28v.71h-4.64v1.87h3.35v.71h-3.35V31.4h4.64v.72h-5.28Z" transform="translate(-21.2 -0.76)"/><path class="cls-2" d="M137.35,32.26V24.82L134,28.54l-3.34-3.72v7.44h-.78V23.53h.52l3.47,3.86,3.48-3.86H138v8.73Z" transform="translate(-21.2 -0.76)"/><path class="cls-2" d="M138.51,32.26V23.53h5.28v.71h-4.64v1.87h3.35v.71h-3.35V31.4h4.64v.72h-5.28Z" transform="translate(-21.2 -0.76)"/><path class="cls-2" d="M150.09,32.26V29.54l-5.14-5v7.73h-.65V23.53h.77l5.15,4.87V23.53h.65v8.73Z" transform="translate(-21.2 -0.76)"/><path class="cls-2" d="M154.73,32.26v-8h-3.35v-.71H159v.71H155.5v8Z" transform="translate(-21.2 -0.76)"/><path class="cls-3" d="M48.62,23.67C47,24.82,45.4,26,43.6,27.39,42.7,18.8,41.93,10.64,41,2.19,46.56,1.76,52,1.19,57.38.76a5.83,5.83,0,0,0,.12,1.58c0,3.58,0,7.16.13,10.74a3.3,3.3,0,0,1-.9,2.43c-.77.86-1.41,1.72-2.19,2.72-.38-.86-.51-1.72-.9-2.43-1.54-3-5.15-2.87-6.69,0a6,6,0,0,0,1.16,7.44A2.62,2.62,0,0,1,48.62,23.67Z" transform="translate(-21.2 -0.76)"/><path class="cls-3" d="M38.45,27.39c-1,1.15-2.06,2.44-3.09,3.73a2,2,0,0,0,.52.43c-.26,0-.39,0-.39.14a5.1,5.1,0,0,1-.64-1.15C34.2,28,33.56,25.25,33,22.67c-1-4.73-2.05-9.31-3-14a1.28,1.28,0,0,1,.39-1.15c3-.71,5.79-1.29,8.88-2,.39,4.15.9,8.16,1.29,12C36.13,20.24,35.62,22.67,38.45,27.39Z" transform="translate(-21.2 -0.76)"/><path class="cls-3" d="M23.13,21.52c-.64-1.57-1.29-3.15-1.93-4.86,2.58-.86,5.15-1.72,7.73-2.73.9,4,1.93,8,2.83,11.89a2,2,0,0,1-.13.86,5.82,5.82,0,0,0-.39,6.44,27,27,0,0,1-3,.58,1.06,1.06,0,0,1-.77-.58c-1.42-3.86-3-7.73-4.38-11.6a3.67,3.67,0,0,1,.77.58c.78-.86,1.55-1.58,2.45-2.58-.64-.29-1.16-.72-1.54-.57a6.68,6.68,0,0,0-1.68,1.71C23.13,21,23.26,21.38,23.13,21.52Z" transform="translate(-21.2 -0.76)"/><path class="cls-3" d="M63.56.76A5.37,5.37,0,0,1,65,4.05c.52,3.73-.9,6.73-2.57,9.74A39.23,39.23,0,0,1,51.71,25.68c-2.06,1.57-4.12,3-6.31,4.44a24.09,24.09,0,0,1-3.34,1.28,2.78,2.78,0,0,1-.52-.14,2.8,2.8,0,0,1,.26-1c.51-.43,1.16-.72,1.8-1.15C50,24.82,55.83,19.66,60.08,12.79a19.46,19.46,0,0,0,3.48-9.74Z" transform="translate(-21.2 -0.76)"/><path class="cls-3" d="M41.93,28.54c-1.42.72-2.83,1.58-4.25,2.29a9.66,9.66,0,0,0,.77-1.72c.26-.71.52-1.29,1.55-1a7.27,7.27,0,0,0,1.8.14A.47.47,0,0,0,41.93,28.54Z" transform="translate(-21.2 -0.76)"/></svg>